<svg width="30" height="32" viewBox="0 0 30 32" fill="none" xmlns="http://www.w3.org/2000/svg">
<rect x="1.09753" y="7.70508" width="28.2565" height="22.9441" rx="2.5" fill="#968265" stroke="black"/>
<mask id="path-2-inside-1_65_178" fill="white">
<path d="M8.78943 2.72632C8.78943 1.62175 9.68486 0.726318 10.7894 0.726318H19.6623C20.7669 0.726318 21.6623 1.62175 21.6623 2.72632V5.79683H8.78943V2.72632Z"/>
</mask>
<path d="M7.78943 2.72632C7.78943 1.06946 9.13257 -0.273682 10.7894 -0.273682H19.6623C21.3192 -0.273682 22.6623 1.06946 22.6623 2.72632H20.6623C20.6623 2.17403 20.2146 1.72632 19.6623 1.72632H10.7894C10.2371 1.72632 9.78943 2.17403 9.78943 2.72632H7.78943ZM21.6623 5.79683H8.78943H21.6623ZM7.78943 5.79683V2.72632C7.78943 1.06946 9.13257 -0.273682 10.7894 -0.273682V1.72632C10.2371 1.72632 9.78943 2.17403 9.78943 2.72632V5.79683H7.78943ZM19.6623 -0.273682C21.3192 -0.273682 22.6623 1.06946 22.6623 2.72632V5.79683H20.6623V2.72632C20.6623 2.17403 20.2146 1.72632 19.6623 1.72632V-0.273682Z" fill="black" mask="url(#path-2-inside-1_65_178)"/>
<line x1="0.597534" y1="14.4518" x2="29.8541" y2="14.4518" stroke="black"/>
<rect x="13.3854" y="12.6348" width="3.68105" height="4.6339" rx="0.5" fill="#D9D9D9" stroke="black"/>
</svg>
