<svg width="24" height="25" viewBox="0 0 24 25" fill="none" xmlns="http://www.w3.org/2000/svg">
<rect x="1.93774" y="3.84973" width="20.2341" height="19.2718" rx="4" fill="#A4A2A2" stroke="black" stroke-width="2"/>
<line x1="0.937256" y1="8.84399" x2="23.1722" y2="8.84399" stroke="black" stroke-width="2"/>
<rect x="5.7207" y="0.5" width="1.8894" height="5.62431" rx="0.944699" fill="#A4A2A2" stroke="black"/>
<path d="M18.6169 5.17961V1.4447C18.6169 0.922956 18.194 0.5 17.6722 0.5C17.1505 0.5 16.7275 0.922954 16.7275 1.4447V5.17961C16.7275 5.70135 17.1505 6.12431 17.6722 6.12431C18.194 6.12431 18.6169 5.70135 18.6169 5.17961Z" fill="#E7E7E7" stroke="black"/>
<rect x="5.34033" y="11.636" width="2.64168" height="2.77459" fill="black"/>
<rect x="16.3472" y="11.636" width="2.64168" height="2.77459" fill="black"/>
<rect x="10.8435" y="11.636" width="2.64168" height="2.77459" fill="black"/>
<rect x="5.34033" y="17.4163" width="2.64168" height="2.77459" fill="black"/>
<rect x="16.3472" y="17.4163" width="2.64168" height="2.77459" fill="black"/>
<rect x="10.8435" y="17.4163" width="2.64168" height="2.77459" fill="black"/>
</svg>
