<svg width="30" height="33" viewBox="0 0 30 33" fill="none" xmlns="http://www.w3.org/2000/svg">
<rect x="1.59814" y="5.21997" width="27.2554" height="25.9892" rx="4" fill="#E7E7E7" stroke="black" stroke-width="2"/>
<line x1="0.597534" y1="12.4231" x2="29.8541" y2="12.4231" stroke="black" stroke-width="2"/>
<rect x="7.04944" y="1.28625" width="2.17026" height="7.08462" rx="1.08513" fill="#E7E7E7" stroke="black"/>
<path d="M23.7026 7.28574V2.37139C23.7026 1.77208 23.2168 1.28625 22.6175 1.28625C22.0182 1.28625 21.5323 1.77208 21.5323 2.37139V7.28574C21.5323 7.88504 22.0182 8.37087 22.6175 8.37087C23.2168 8.37087 23.7026 7.88504 23.7026 7.28574Z" fill="#E7E7E7" stroke="black"/>
<rect x="6.39075" y="15.7808" width="3.47589" height="3.65077" fill="black"/>
<rect x="20.8737" y="15.7808" width="3.47589" height="3.65077" fill="black"/>
<rect x="13.6323" y="15.7808" width="3.47589" height="3.65077" fill="black"/>
<rect x="6.39075" y="23.3866" width="3.47589" height="3.65077" fill="black"/>
<rect x="20.8737" y="23.3866" width="3.47589" height="3.65077" fill="black"/>
<rect x="13.6323" y="23.3866" width="3.47589" height="3.65077" fill="black"/>
</svg>
